<svg xmlns="http://www.w3.org/2000/svg" viewBox="0 0 1280 640" width="1280" height="640" role="img" aria-labelledby="title desc">
  <title id="title">DUBSAR — Govern the path from intent to evidence</title>
  <desc id="desc">DUBSAR checkpoint identity, private product beta and professional audit.</desc>
  <style>text{font-family:Inter,ui-sans-serif,system-ui,-apple-system,BlinkMacSystemFont,"Segoe UI",sans-serif}</style>
  <rect width="1280" height="640" fill="#081016"/>
  <rect x="24" y="24" width="1232" height="592" rx="24" fill="none" stroke="#253640" stroke-width="2"/>
  <g transform="translate(92 86)">
    <path d="M0 66H54" fill="none" stroke="#3fc7b4" stroke-width="14" stroke-linecap="round" opacity=".68"/>
    <path d="M138 66H192" fill="none" stroke="#3fc7b4" stroke-width="14" stroke-linecap="round" opacity=".68"/>
    <circle cx="96" cy="66" r="42" fill="none" stroke="#3fc7b4" stroke-width="14"/>
    <circle cx="96" cy="66" r="13" fill="#3fc7b4"/>
  </g>
  <text x="332" y="136" fill="#eef5f6" font-size="78" font-weight="760" letter-spacing="13">DUBSAR</text>
  <text x="334" y="190" fill="#aebdc4" font-size="25">Durable governance for software built with coding agents.</text>
  <line x1="92" y1="271" x2="1188" y2="271" stroke="#263943" stroke-width="2"/>
  <circle cx="92" cy="271" r="6" fill="#3fc7b4"/>
  <circle cx="1188" cy="271" r="6" fill="#3fc7b4"/>
  <g transform="translate(92 325)">
    <rect width="514" height="184" rx="18" fill="#0e171c" stroke="#29434a"/>
    <circle cx="38" cy="42" r="7" fill="#3fc7b4"/>
    <text x="62" y="49" fill="#3fc7b4" font-size="17" font-weight="750" letter-spacing="1">PRODUCT</text>
    <text x="34" y="96" fill="#edf4f6" font-size="27" font-weight="700">DUBSAR for Claude Code</text>
    <text x="34" y="133" fill="#aebdc4" font-size="18">Controlled private beta · Windows first</text>
    <text x="34" y="160" fill="#788b95" font-size="15">Mission · Sessions · Evidence · Human Gates</text>
  </g>
  <g transform="translate(674 325)">
    <rect width="514" height="184" rx="18" fill="#111719" stroke="#4a4332"/>
    <circle cx="38" cy="42" r="7" fill="#d7a640"/>
    <text x="62" y="49" fill="#d7a640" font-size="17" font-weight="750" letter-spacing="1">PROFESSIONAL SERVICE</text>
    <text x="34" y="96" fill="#edf4f6" font-size="27" font-weight="700">DUBSAR Audit</text>
    <text x="34" y="133" fill="#aebdc4" font-size="18">Remote · Read-only by default · Human-reviewed</text>
    <text x="34" y="160" fill="#788b95" font-size="15">Launch readiness · Agent governance</text>
  </g>
  <text x="92" y="574" fill="#768993" font-size="17">dubsar.ai</text>
  <text x="1188" y="574" fill="#768993" font-size="17" text-anchor="end">Private Core · Human authority</text>
</svg>
